<svg width="1189" height="1189" viewBox="0 0 1189 1189" fill="none" xmlns="http://www.w3.org/2000/svg">
<rect width="1189" height="1189" rx="124.5" fill="#87A0DE"/>
<path d="M435.725 970.356C391.478 970.356 352.409 963.295 318.517 949.173C285.096 935.052 258.971 914.576 240.143 887.745C221.314 860.443 211.9 827.023 211.9 787.482C211.9 747.942 221.314 714.521 240.143 687.22C258.971 659.447 285.096 638.501 318.517 624.379C352.409 610.258 391.478 603.197 435.725 603.197C479.973 603.197 518.572 610.258 551.522 624.379C584.943 638.501 611.067 659.447 629.896 687.22C648.725 714.521 658.139 747.942 658.139 787.482C658.139 827.023 648.725 860.443 629.896 887.745C611.067 914.576 584.943 935.052 551.522 949.173C518.572 963.295 479.973 970.356 435.725 970.356ZM435.725 899.748C460.203 899.748 482.091 895.512 501.39 887.039C521.16 878.095 536.694 865.386 547.991 848.911C559.289 831.965 564.937 811.489 564.937 787.482C564.937 763.476 559.289 743 547.991 726.054C536.694 708.637 521.396 695.457 502.096 686.514C482.797 677.57 460.673 673.098 435.725 673.098C411.248 673.098 389.124 677.57 369.354 686.514C349.584 695.457 333.815 708.402 322.047 725.348C310.75 742.294 305.102 763.005 305.102 787.482C305.102 811.489 310.75 831.965 322.047 848.911C333.345 865.386 348.878 878.095 368.648 887.039C388.418 895.512 410.777 899.748 435.725 899.748Z" fill="white"/>
<path d="M865.797 908.221C827.669 908.221 794.012 902.573 764.828 891.275C736.114 879.507 713.755 862.326 697.751 839.732C681.747 817.137 673.744 789.836 673.744 757.827C673.744 726.289 681.511 698.988 697.045 675.922C712.578 652.857 734.702 634.97 763.416 622.261C792.6 609.551 826.727 603.197 865.797 603.197C876.623 603.197 886.979 603.903 896.864 605.315C907.22 606.727 917.34 608.61 927.225 610.964L1104.45 611.67V680.865C1080.44 681.336 1055.97 678.511 1031.02 672.392C1006.54 665.802 984.888 658.741 966.059 651.21L963.941 646.267C979.946 653.799 995.008 663.213 1009.13 674.51C1023.25 685.337 1034.55 698.046 1043.02 712.638C1051.97 726.76 1056.44 743.235 1056.44 762.064C1056.44 792.66 1048.67 819.02 1033.14 841.144C1017.6 862.797 995.479 879.507 966.765 891.275C938.522 902.573 904.866 908.221 865.797 908.221ZM983.711 1106.63V1089.68C983.711 1068.03 976.65 1052.97 962.529 1044.49C948.878 1036.02 930.05 1031.78 906.043 1031.78H796.601C775.419 1031.78 757.532 1030.14 742.94 1026.84C728.818 1023.55 717.521 1018.84 709.048 1012.72C700.575 1006.6 694.456 999.305 690.69 990.832C686.924 982.83 685.042 974.121 685.042 964.707C685.042 945.878 691.161 931.757 703.399 922.343C715.638 912.458 732.113 905.868 752.825 902.573C773.536 899.278 796.366 898.571 821.314 900.454L865.797 908.221C836.142 909.163 814.018 911.751 799.426 915.988C785.304 919.754 778.243 927.52 778.243 939.288C778.243 946.349 781.068 951.998 786.716 956.234C792.365 960 800.367 961.883 810.723 961.883H925.813C957.351 961.883 984.182 965.178 1006.31 971.768C1028.9 978.829 1046.08 990.361 1057.85 1006.37C1069.62 1022.84 1075.5 1045.2 1075.5 1073.44V1106.63H983.711ZM865.797 841.85C886.038 841.85 903.689 838.555 918.752 831.965C934.286 825.375 946.289 815.961 954.762 803.722C963.235 791.013 967.472 775.95 967.472 758.533C967.472 740.646 963.235 725.348 954.762 712.638C946.289 699.929 934.521 690.279 919.458 683.689C904.395 676.629 886.508 673.098 865.797 673.098C845.556 673.098 827.669 676.629 812.135 683.689C796.601 690.279 784.598 699.929 776.125 712.638C767.652 725.348 763.416 740.646 763.416 758.533C763.416 775.95 767.652 791.013 776.125 803.722C784.598 815.961 796.366 825.375 811.429 831.965C826.963 838.555 845.085 841.85 865.797 841.85Z" fill="#1B4098"/>
</svg>
